<?xml version="1.0" encoding="UTF-8"?>
<svg width="378px" height="140px" viewBox="0 0 378 140" version="1.1" xmlns="http://www.w3.org/2000/svg" xmlns:xlink="http://www.w3.org/1999/xlink">
    <!-- Generator: Sketch 52.2 (67145) - http://www.bohemiancoding.com/sketch -->
    <title>Group 2</title>
    <desc>Created with Sketch.</desc>
    <g id="Page-1" stroke="none" stroke-width="1" fill="none" fill-rule="evenodd">
        <g id="Artboard" transform="translate(-59.000000, -188.000000)">
            <g id="Group-2" transform="translate(59.000000, 188.000000)">
                <path d="M78.5,8.04903611 L56.3437481,36 L20,36 C11.7157288,36 5,42.7157288 5,51 L5,120 C5,128.284271 11.7157288,135 20,135 L358,135 C366.284271,135 373,128.284271 373,120 L373,51 C373,42.7157288 366.284271,36 358,36 L100.656252,36 L78.5,8.04903611 Z" id="Combined-Shape" stroke-opacity="0.5" stroke="#FFFFFF" stroke-width="10"></path>
                <path d="M65.44,69.84 L70.64,89.32 L77.04,69.84 L83.28,69.84 L89.68,89.32 L94.88,69.84 L103.08,69.84 L94.08,100 L86.08,100 L80.16,82.52 L74.24,100 L66.24,100 L57.24,69.84 L65.44,69.84 Z M119.2,86.76 C118.959999,85.7466616 118.46667,84.9333364 117.72,84.32 C116.97333,83.7066636 116.066672,83.4 115,83.4 C113.879994,83.4 112.96667,83.6933304 112.26,84.28 C111.55333,84.8666696 111.106668,85.693328 110.92,86.76 L119.2,86.76 Z M110.72,90.96 C110.72,94.0800156 112.186652,95.64 115.12,95.64 C116.693341,95.64 117.879996,95.0000064 118.68,93.72 L125.68,93.72 C124.26666,98.4133568 120.733362,100.76 115.08,100.76 C113.346658,100.76 111.760007,100.500003 110.32,99.98 C108.879993,99.4599974 107.646672,98.7200048 106.62,97.76 C105.593328,96.7999952 104.800003,95.65334 104.24,94.32 C103.679997,92.98666 103.4,91.4933416 103.4,89.84 C103.4,88.1333248 103.666664,86.5933402 104.2,85.22 C104.733336,83.8466598 105.493328,82.6800048 106.48,81.72 C107.466672,80.7599952 108.659993,80.0200026 110.06,79.5 C111.460007,78.9799974 113.039991,78.72 114.8,78.72 C116.533342,78.72 118.093326,78.9799974 119.48,79.5 C120.866674,80.0200026 122.039995,80.7733284 123,81.76 C123.960005,82.7466716 124.693331,83.9533262 125.2,85.38 C125.706669,86.8066738 125.96,88.4133244 125.96,90.2 L125.96,90.96 L110.72,90.96 Z M134.64,69.84 L141.48,69.84 L134.12,83.12 L129.48,83.12 L134.64,69.84 Z M145.84,79.48 L153.08,79.48 L153.08,82.84 C153.853337,81.6133272 154.799994,80.6733366 155.92,80.02 C157.040006,79.3666634 158.346659,79.04 159.84,79.04 L160.46,79.04 C160.686668,79.04 160.946665,79.0666664 161.24,79.12 L161.24,86.04 C160.279995,85.5599976 159.240006,85.32 158.12,85.32 C156.439992,85.32 155.180004,85.819995 154.34,86.82 C153.499996,87.820005 153.08,89.2799904 153.08,91.2 L153.08,100 L145.84,100 L145.84,79.48 Z M179.72,86.76 C179.479999,85.7466616 178.98667,84.9333364 178.24,84.32 C177.49333,83.7066636 176.586672,83.4 175.52,83.4 C174.399994,83.4 173.48667,83.6933304 172.78,84.28 C172.07333,84.8666696 171.626668,85.693328 171.44,86.76 L179.72,86.76 Z M171.24,90.96 C171.24,94.0800156 172.706652,95.64 175.64,95.64 C177.213341,95.64 178.399996,95.0000064 179.2,93.72 L186.2,93.72 C184.78666,98.4133568 181.253362,100.76 175.6,100.76 C173.866658,100.76 172.280007,100.500003 170.84,99.98 C169.399993,99.4599974 168.166672,98.7200048 167.14,97.76 C166.113328,96.7999952 165.320003,95.65334 164.76,94.32 C164.199997,92.98666 163.92,91.4933416 163.92,89.84 C163.92,88.1333248 164.186664,86.5933402 164.72,85.22 C165.253336,83.8466598 166.013328,82.6800048 167,81.72 C167.986672,80.7599952 169.179993,80.0200026 170.58,79.5 C171.980007,78.9799974 173.559991,78.72 175.32,78.72 C177.053342,78.72 178.613326,78.9799974 180,79.5 C181.386674,80.0200026 182.559995,80.7733284 183.52,81.76 C184.480005,82.7466716 185.213331,83.9533262 185.72,85.38 C186.226669,86.8066738 186.48,88.4133244 186.48,90.2 L186.48,90.96 L171.24,90.96 Z M204.2,66.8 L211.44,66.8 L211.44,82.08 C212.426672,80.879994 213.426662,80.0733354 214.44,79.66 C215.453338,79.2466646 216.639993,79.04 218,79.04 C220.58668,79.04 222.539993,79.7533262 223.86,81.18 C225.180007,82.6066738 225.84,84.5333212 225.84,86.96 L225.84,100 L218.6,100 L218.6,89.64 C218.6,88.5999948 218.520001,87.7600032 218.36,87.12 C218.199999,86.4799968 217.933335,85.9866684 217.56,85.64 C216.919997,85.0799972 216.146671,84.8 215.24,84.8 C214.013327,84.8 213.073337,85.166663 212.42,85.9 C211.766663,86.633337 211.44,87.6799932 211.44,89.04 L211.44,100 L204.2,100 L204.2,66.8 Z M238,79.48 L238,100 L230.76,100 L230.76,79.48 L238,79.48 Z M230.28,71.6 C230.28,71.0399972 230.386666,70.5133358 230.6,70.02 C230.813334,69.5266642 231.106665,69.0933352 231.48,68.72 C231.853335,68.3466648 232.286664,68.0533344 232.78,67.84 C233.273336,67.6266656 233.799997,67.52 234.36,67.52 C234.920003,67.52 235.446664,67.6266656 235.94,67.84 C236.433336,68.0533344 236.866665,68.3466648 237.24,68.72 C237.613335,69.0933352 237.906666,69.5266642 238.12,70.02 C238.333334,70.5133358 238.44,71.0399972 238.44,71.6 C238.44,72.1600028 238.333334,72.6866642 238.12,73.18 C237.906666,73.6733358 237.613335,74.1066648 237.24,74.48 C236.866665,74.8533352 236.433336,75.1466656 235.94,75.36 C235.446664,75.5733344 234.920003,75.68 234.36,75.68 C233.799997,75.68 233.273336,75.5733344 232.78,75.36 C232.286664,75.1466656 231.853335,74.8533352 231.48,74.48 C231.106665,74.1066648 230.813334,73.6733358 230.6,73.18 C230.386666,72.6866642 230.28,72.1600028 230.28,71.6 Z M242.96,79.48 L250.2,79.48 L250.2,82.84 C250.973337,81.6133272 251.919994,80.6733366 253.04,80.02 C254.160006,79.3666634 255.466659,79.04 256.96,79.04 L257.58,79.04 C257.806668,79.04 258.066665,79.0666664 258.36,79.12 L258.36,86.04 C257.399995,85.5599976 256.360006,85.32 255.24,85.32 C253.559992,85.32 252.300004,85.819995 251.46,86.82 C250.619996,87.820005 250.2,89.2799904 250.2,91.2 L250.2,100 L242.96,100 L242.96,79.48 Z M268.84,79.48 L268.84,100 L261.6,100 L261.6,79.48 L268.84,79.48 Z M261.12,71.6 C261.12,71.0399972 261.226666,70.5133358 261.44,70.02 C261.653334,69.5266642 261.946665,69.0933352 262.32,68.72 C262.693335,68.3466648 263.126664,68.0533344 263.62,67.84 C264.113336,67.6266656 264.639997,67.52 265.2,67.52 C265.760003,67.52 266.286664,67.6266656 266.78,67.84 C267.273336,68.0533344 267.706665,68.3466648 268.08,68.72 C268.453335,69.0933352 268.746666,69.5266642 268.96,70.02 C269.173334,70.5133358 269.28,71.0399972 269.28,71.6 C269.28,72.1600028 269.173334,72.6866642 268.96,73.18 C268.746666,73.6733358 268.453335,74.1066648 268.08,74.48 C267.706665,74.8533352 267.273336,75.1466656 266.78,75.36 C266.286664,75.5733344 265.760003,75.68 265.2,75.68 C264.639997,75.68 264.113336,75.5733344 263.62,75.36 C263.126664,75.1466656 262.693335,74.8533352 262.32,74.48 C261.946665,74.1066648 261.653334,73.6733358 261.44,73.18 C261.226666,72.6866642 261.12,72.1600028 261.12,71.6 Z M273.8,79.48 L281.04,79.48 L281.04,82.08 C282.026672,80.879994 283.026662,80.0733354 284.04,79.66 C285.053338,79.2466646 286.239993,79.04 287.6,79.04 C289.040007,79.04 290.273328,79.273331 291.3,79.74 C292.326672,80.206669 293.199996,80.8666624 293.92,81.72 C294.50667,82.4133368 294.906666,83.1866624 295.12,84.04 C295.333334,84.8933376 295.44,85.8666612 295.44,86.96 L295.44,100 L288.2,100 L288.2,89.64 C288.2,88.6266616 288.126667,87.8066698 287.98,87.18 C287.833333,86.5533302 287.573335,86.0533352 287.2,85.68 C286.879998,85.3599984 286.520002,85.133334 286.12,85 C285.719998,84.866666 285.293336,84.8 284.84,84.8 C283.613327,84.8 282.673337,85.166663 282.02,85.9 C281.366663,86.633337 281.04,87.6799932 281.04,89.04 L281.04,100 L273.8,100 L273.8,79.48 Z M307.08,89.64 C307.08,90.30667 307.199999,90.9266638 307.44,91.5 C307.680001,92.0733362 308.006665,92.5733312 308.42,93 C308.833335,93.4266688 309.326664,93.7599988 309.9,94 C310.473336,94.2400012 311.09333,94.36 311.76,94.36 C312.400003,94.36 313.006664,94.2400012 313.58,94 C314.153336,93.7599988 314.646665,93.4266688 315.06,93 C315.473335,92.5733312 315.806665,92.0733362 316.06,91.5 C316.313335,90.9266638 316.44,90.3200032 316.44,89.68 C316.44,89.01333 316.313335,88.4000028 316.06,87.84 C315.806665,87.2799972 315.466669,86.7866688 315.04,86.36 C314.613331,85.9333312 314.113336,85.6000012 313.54,85.36 C312.966664,85.1199988 312.373336,85 311.76,85 C311.119997,85 310.520003,85.1266654 309.96,85.38 C309.399997,85.6333346 308.906669,85.9666646 308.48,86.38 C308.053331,86.7933354 307.713335,87.2799972 307.46,87.84 C307.206665,88.4000028 307.08,88.9999968 307.08,89.64 Z M323.32,79.48 L323.32,98.6 C323.32,99.7466724 323.253334,100.773329 323.12,101.68 C322.986666,102.586671 322.800001,103.386663 322.56,104.08 C322.239998,104.960004 321.740003,105.779996 321.06,106.54 C320.379997,107.300004 319.560005,107.959997 318.6,108.52 C317.639995,109.080003 316.553339,109.519998 315.34,109.84 C314.126661,110.160002 312.81334,110.32 311.4,110.32 C309.799992,110.32 308.33334,110.120002 307,109.72 C305.66666,109.319998 304.500005,108.76667 303.5,108.06 C302.499995,107.35333 301.680003,106.526671 301.04,105.58 C300.399997,104.633329 299.973334,103.600006 299.76,102.48 L307.92,102.48 C308.426669,103.840007 309.573324,104.52 311.36,104.52 C312.880008,104.52 314.046663,104.093338 314.86,103.24 C315.673337,102.386662 316.08,101.200008 316.08,99.68 L316.08,97.72 C315.546664,98.2266692 315.033336,98.646665 314.54,98.98 C314.046664,99.313335 313.546669,99.5866656 313.04,99.8 C312.533331,100.013334 312.000003,100.166666 311.44,100.26 C310.879997,100.353334 310.26667,100.4 309.6,100.4 C308.133326,100.4 306.786673,100.146669 305.56,99.64 C304.333327,99.1333308 303.273338,98.4266712 302.38,97.52 C301.486662,96.6133288 300.793336,95.526673 300.3,94.26 C299.806664,92.993327 299.56,91.5866744 299.56,90.04 C299.56,88.4666588 299.826664,87.0066734 300.36,85.66 C300.893336,84.3133266 301.619995,83.140005 302.54,82.14 C303.460005,81.139995 304.553327,80.3533362 305.82,79.78 C307.086673,79.2066638 308.466659,78.92 309.96,78.92 C312.386679,78.92 314.426658,79.8266576 316.08,81.64 L316.08,79.48 L323.32,79.48 Z" id="We’re-hiring" fill="#FFFFFF"></path>
            </g>
        </g>
    </g>
</svg>