<?xml version="1.0" encoding="UTF-8"?>
<svg width="398px" height="59px" viewBox="0 0 398 59" version="1.1" xmlns="http://www.w3.org/2000/svg" xmlns:xlink="http://www.w3.org/1999/xlink">
    <!-- Generator: Sketch 55.2 (78181) - https://sketchapp.com -->
    <title>Magni&amp;Tude</title>
    <desc>Created with Sketch.</desc>
    <g id="Page-1" stroke="none" stroke-width="1" fill="none" fill-rule="evenodd">
        <g id="Logo" transform="translate(-272.000000, -298.000000)" fill="#000000" fill-rule="nonzero">
            <path d="M326.82,303.72 C325.539994,303.8 324.610003,303.959999 324.03,304.2 C323.449997,304.440001 323.060001,304.899997 322.86,305.58 C322.659999,306.260003 322.56,307.359992 322.56,308.88 L322.56,338.64 C322.56,340.160008 322.669999,341.259997 322.89,341.94 C323.110001,342.620003 323.499997,343.079999 324.06,343.32 C324.620003,343.560001 325.539994,343.72 326.82,343.8 L326.82,345 C324.379988,344.879999 320.840023,344.82 316.2,344.82 C311.359976,344.82 307.800011,344.879999 305.52,345 L305.52,343.8 C306.960007,343.72 308.009997,343.560001 308.67,343.32 C309.330003,343.079999 309.779999,342.620003 310.02,341.94 C310.260001,341.259997 310.38,340.160008 310.38,338.64 L310.38,307.98 L295.92,344.94 L294.96,344.94 L278.04,306.42 L278.04,333.24 C278.04,336.200015 278.159999,338.329994 278.4,339.63 C278.640001,340.930006 279.169996,341.879997 279.99,342.48 C280.810004,343.080003 282.17999,343.52 284.1,343.8 L284.1,345 C282.459992,344.879999 280.220014,344.82 277.38,344.82 C275.259989,344.82 273.600006,344.879999 272.4,345 L272.4,343.8 C273.640006,343.52 274.559997,343.090003 275.16,342.51 C275.760003,341.929997 276.159999,341.040006 276.36,339.84 C276.560001,338.639994 276.66,336.840012 276.66,334.44 L276.66,308.88 C276.66,307.359992 276.550001,306.260003 276.33,305.58 C276.109999,304.899997 275.720003,304.440001 275.16,304.2 C274.599997,303.959999 273.680006,303.8 272.4,303.72 L272.4,302.52 C273.600006,302.640001 275.259989,302.7 277.38,302.7 C282.180024,302.7 286.319983,302.640001 289.8,302.52 L301.14,328.02 L310.98,302.7 L316.2,302.7 C320.840023,302.7 324.379988,302.640001 326.82,302.52 L326.82,303.72 Z M337.14,345.42 C334.579987,345.42 332.650006,344.730007 331.35,343.35 C330.049993,341.969993 329.4,340.24001 329.4,338.16 C329.4,336.359991 329.869995,334.870006 330.81,333.69 C331.750005,332.509994 332.859994,331.600003 334.14,330.96 C335.420006,330.319997 337.07999,329.660003 339.12,328.98 C341.280011,328.259996 342.859995,327.600003 343.86,327 C344.860005,326.399997 345.36,325.560005 345.36,324.48 L345.36,319.14 C345.36,317.859994 345.040003,316.720005 344.4,315.72 C343.759997,314.719995 342.660008,314.22 341.1,314.22 C339.859994,314.22 338.740005,314.559997 337.74,315.24 C339.100007,315.720002 340.109997,316.429995 340.77,317.37 C341.430003,318.310005 341.76,319.359994 341.76,320.52 C341.76,322.080008 341.210005,323.329995 340.11,324.27 C339.009994,325.210005 337.680008,325.68 336.12,325.68 C334.559992,325.68 333.330004,325.190005 332.43,324.21 C331.529995,323.229995 331.08,321.980008 331.08,320.46 C331.08,319.259994 331.379997,318.220004 331.98,317.34 C332.580003,316.459996 333.519994,315.660004 334.8,314.94 C337.040011,313.659994 340.239979,313.02 344.4,313.02 C346.600011,313.02 348.499992,313.229998 350.1,313.65 C351.700008,314.070002 353.059994,314.859994 354.18,316.02 C354.980004,316.860004 355.509999,317.909994 355.77,319.17 C356.030001,320.430006 356.16,322.179989 356.16,324.42 L356.16,340.5 C356.16,341.500005 356.229999,342.179998 356.37,342.54 C356.510001,342.900002 356.759998,343.08 357.12,343.08 C357.4,343.08 357.699998,342.990001 358.02,342.81 C358.340002,342.629999 358.639999,342.420001 358.92,342.18 L359.52,343.2 C357.799991,344.680007 355.340016,345.42 352.14,345.42 C349.739988,345.42 348.060005,345.010004 347.1,344.19 C346.139995,343.369996 345.62,342.260007 345.54,340.86 C343.659991,343.900015 340.860019,345.42 337.14,345.42 Z M343.14,340.62 C343.980004,340.62 344.719997,340.280003 345.36,339.6 L345.36,326.94 C344.999998,327.540003 344.340005,328.319995 343.38,329.28 C342.299995,330.320005 341.480003,331.329995 340.92,332.31 C340.359997,333.290005 340.08,334.619992 340.08,336.3 C340.08,339.180014 341.09999,340.62 343.14,340.62 Z M390.9,319.92 C390.059996,319.92 389.330003,319.630003 388.71,319.05 C388.089997,318.469997 387.78,317.660005 387.78,316.62 C387.78,315.659995 388.059997,314.620006 388.62,313.5 C386.859991,314.220004 385.560004,315.239993 384.72,316.56 C386.200007,318.120008 386.94,320.139988 386.94,322.62 C386.94,325.780016 385.770012,328.169992 383.43,329.79 C381.089988,331.410008 377.96002,332.22 374.04,332.22 C373.279996,332.22 372.720002,332.2 372.36,332.16 C371.319995,332.880004 370.8,333.719995 370.8,334.68 C370.8,335.960006 371.519993,336.6 372.96,336.6 L378.78,336.6 C382.86002,336.6 386.049988,337.289993 388.35,338.67 C390.650011,340.050007 391.8,342.199985 391.8,345.12 C391.8,347.20001 391.130007,349.079992 389.79,350.76 C388.449993,352.440008 386.390014,353.779995 383.61,354.78 C380.829986,355.780005 377.360021,356.28 373.2,356.28 C369.079979,356.28 365.840012,355.820005 363.48,354.9 C361.119988,353.979995 359.94,352.680008 359.94,351 C359.94,349.839994 360.519994,348.780005 361.68,347.82 C362.840006,346.859995 364.599988,346.100003 366.96,345.54 L367.56,346.5 C366.479995,347.820007 365.94,349.099994 365.94,350.34 C365.94,351.900008 366.649993,353.109996 368.07,353.97 C369.490007,354.830004 371.479987,355.26 374.04,355.26 C376.680013,355.26 378.709993,354.730005 380.13,353.67 C381.550007,352.609995 382.26,351.200009 382.26,349.44 C382.26,348.199994 381.790005,347.210004 380.85,346.47 C379.909995,345.729996 378.260012,345.36 375.9,345.36 L372.66,345.36 C369.939986,345.36 367.860007,344.840005 366.42,343.8 C364.979993,342.759995 364.26,341.360009 364.26,339.6 C364.26,337.999992 364.829994,336.600006 365.97,335.4 C367.110006,334.199994 368.759989,333.080005 370.92,332.04 C367.879985,331.639998 365.490009,330.650008 363.75,329.07 C362.009991,327.489992 361.14,325.340014 361.14,322.62 C361.14,319.459984 362.309988,317.070008 364.65,315.45 C366.990012,313.829992 370.11998,313.02 374.04,313.02 C378.240021,313.02 381.479989,313.899991 383.76,315.66 C384.520004,314.619995 385.44,313.8 386.52,313.2 C387.600005,312.599997 388.739994,312.3 389.94,312.3 C391.260007,312.3 392.279996,312.669996 393,313.41 C393.720004,314.150004 394.08,315.099994 394.08,316.26 C394.08,317.380006 393.780003,318.269997 393.18,318.93 C392.579997,319.590003 391.820005,319.92 390.9,319.92 Z M374.04,331.14 C374.840004,331.14 375.449998,330.490006 375.87,329.19 C376.290002,327.889994 376.5,325.700015 376.5,322.62 C376.5,319.539985 376.290002,317.350007 375.87,316.05 C375.449998,314.749994 374.840004,314.1 374.04,314.1 C373.239996,314.1 372.630002,314.749994 372.21,316.05 C371.789998,317.350007 371.58,319.539985 371.58,322.62 C371.58,325.700015 371.789998,327.889994 372.21,329.19 C372.630002,330.490006 373.239996,331.14 374.04,331.14 Z M419.1,313.02 C422.300016,313.02 424.559993,313.819992 425.88,315.42 C426.480003,316.140004 426.919999,317.109994 427.2,318.33 C427.480001,319.550006 427.62,321.15999 427.62,323.16 L427.62,339.42 C427.62,341.060008 427.869997,342.189997 428.37,342.81 C428.870002,343.430003 429.739994,343.74 430.98,343.74 L430.98,345 C426.659978,344.839999 423.860006,344.76 422.58,344.76 C421.219993,344.76 418.380022,344.839999 414.06,345 L414.06,343.74 C415.100005,343.74 415.819998,343.430003 416.22,342.81 C416.620002,342.189997 416.82,341.060008 416.82,339.42 L416.82,319.92 C416.82,318.639994 416.590002,317.690003 416.13,317.07 C415.669998,316.449997 414.920005,316.14 413.88,316.14 C412.719994,316.14 411.710004,316.549996 410.85,317.37 C409.989996,318.190004 409.56,319.219994 409.56,320.46 L409.56,339.42 C409.56,341.060008 409.759998,342.189997 410.16,342.81 C410.560002,343.430003 411.279995,343.74 412.32,343.74 L412.32,345 C408.31998,344.839999 405.680006,344.76 404.4,344.76 C403.039993,344.76 400.040023,344.839999 395.4,345 L395.4,343.74 C396.640006,343.74 397.509997,343.430003 398.01,342.81 C398.510002,342.189997 398.76,341.060008 398.76,339.42 L398.76,320.4 C398.76,318.559991 398.510002,317.220004 398.01,316.38 C397.509997,315.539996 396.640006,315.12 395.4,315.12 L395.4,313.86 C396.680006,313.980001 397.919994,314.04 399.12,314.04 C403.280021,314.04 406.759986,313.760003 409.56,313.2 L409.56,317.52 C411.360009,314.519985 414.539977,313.02 419.1,313.02 Z M441.3,298.08 C443.38001,298.08 444.989994,298.519996 446.13,299.4 C447.270006,300.280004 447.84,301.559992 447.84,303.24 C447.84,304.920008 447.270006,306.199996 446.13,307.08 C444.989994,307.960004 443.38001,308.4 441.3,308.4 C439.179989,308.4 437.560006,307.960004 436.44,307.08 C435.319994,306.199996 434.76,304.920008 434.76,303.24 C434.76,301.559992 435.319994,300.280004 436.44,299.4 C437.560006,298.519996 439.179989,298.08 441.3,298.08 Z M447.06,339.42 C447.06,341.060008 447.309997,342.189997 447.81,342.81 C448.310002,343.430003 449.179994,343.74 450.42,343.74 L450.42,345 C446.099978,344.839999 443.260007,344.76 441.9,344.76 C440.539993,344.76 437.540023,344.839999 432.9,345 L432.9,343.74 C434.140006,343.74 435.009997,343.430003 435.51,342.81 C436.010002,342.189997 436.26,341.060008 436.26,339.42 L436.26,320.4 C436.26,318.559991 436.010002,317.220004 435.51,316.38 C435.009997,315.539996 434.140006,315.12 432.9,315.12 L432.9,313.86 C434.180006,313.980001 435.419994,314.04 436.62,314.04 C440.780021,314.04 444.259986,313.760003 447.06,313.2 L447.06,339.42 Z M513.96,320.22 C513.96,320.460001 512.700013,320.639999 510.18,320.76 C508.779993,320.84 507.910002,320.999999 507.57,321.24 C507.229998,321.480001 506.960001,322.119995 506.76,323.16 C505.72,328.600027 503.860013,332.819985 501.18,335.82 L501.6,336.48 L502.86,338.52 L504.18,340.5 C505.060004,341.82 505.959995,342.689998 506.88,343.11 C507.800005,343.530002 509.459988,343.799999 511.86,343.92 C512.780005,343.96 513.24,344.179998 513.24,344.58 C513.24,344.860001 512.840004,345 512.04,345 L508.44,344.94 C506.039988,344.9 505.059998,344.88 505.5,344.88 C504.379994,344.88 501.680021,344.939999 497.4,345.06 C496.799997,343.899994 496.22,342.840005 495.66,341.88 C492.539984,344.520013 488.500025,345.84 483.54,345.84 C479.139978,345.84 475.570014,344.750011 472.83,342.57 C470.089986,340.389989 468.72,337.540018 468.72,334.02 C468.72,331.099985 469.579991,328.66001 471.3,326.7 C473.020009,324.73999 475.83998,322.980008 479.76,321.42 C478.279993,319.939993 477.240003,318.82 476.64,318.06 C475.279993,316.339991 474.6,314.280012 474.6,311.88 C474.6,309.199987 475.59999,307.020008 477.6,305.34 C479.60001,303.659992 482.199984,302.82 485.4,302.82 C488.520016,302.82 491.04999,303.549993 492.99,305.01 C494.93001,306.470007 495.9,308.359988 495.9,310.68 C495.9,314.68002 493.180027,317.439992 487.74,318.96 C489.500009,320.760009 491.739986,323.369983 494.46,326.79 C497.180014,330.210017 499.119994,332.859991 500.28,334.74 C503.200015,331.379983 504.66,327.220025 504.66,322.26 C504.66,321.259995 504.140005,320.76 503.1,320.76 C499.939984,320.8 498.36,320.600002 498.36,320.16 C498.36,319.839998 499.019993,319.68 500.34,319.68 L505.68,319.74 L510.78,319.68 C512.900011,319.64 513.96,319.82 513.96,320.22 Z M489.42,311.34 C489.42,306.339975 488.180012,303.84 485.7,303.84 C483.339988,303.84 482.16,305.519983 482.16,308.88 C482.16,310.440008 482.599996,312.079991 483.48,313.8 C484.360004,315.520009 485.479993,316.939994 486.84,318.06 C488.560009,316.859994 489.42,314.620016 489.42,311.34 Z M494.88,340.86 C488.599969,332.419958 483.800017,326.280019 480.48,322.44 C478.47999,323.920007 477.48,326.779979 477.48,331.02 C477.48,334.460017 478.51999,337.369988 480.6,339.75 C482.68001,342.130012 485.239985,343.32 488.28,343.32 C490.920013,343.32 493.119991,342.500008 494.88,340.86 Z M567.78,302.52 C567.499999,306.960022 567.36,310.919983 567.36,314.4 C567.36,316.240009 567.419999,317.679995 567.54,318.72 L566.16,318.72 C564.839993,313.479974 563.14001,309.700012 561.06,307.38 C558.97999,305.059988 556.740012,303.9 554.34,303.9 L554.28,303.9 L554.28,338.22 C554.28,339.900008 554.449998,341.119996 554.79,341.88 C555.130002,342.640004 555.749996,343.149999 556.65,343.41 C557.550004,343.670001 558.97999,343.8 560.94,343.8 L560.94,345 C555.299972,344.879999 550.920016,344.82 547.8,344.82 C544.959986,344.82 540.840027,344.879999 535.44,345 L535.44,343.8 C537.40001,343.8 538.829995,343.670001 539.73,343.41 C540.630005,343.149999 541.249998,342.640004 541.59,341.88 C541.930002,341.119996 542.1,339.900008 542.1,338.22 L542.1,303.9 L542.04,303.9 C539.599988,303.9 537.35001,305.049988 535.29,307.35 C533.22999,309.650012 531.540007,313.439974 530.22,318.72 L528.84,318.72 C528.960001,317.679995 529.02,316.240009 529.02,314.4 C529.02,310.919983 528.880001,306.960022 528.6,302.52 C532.400019,302.640001 538.939954,302.7 548.22,302.7 C557.460046,302.7 563.979981,302.640001 567.78,302.52 Z M600.24,338.46 C600.24,340.300009 600.489997,341.639996 600.99,342.48 C601.490002,343.320004 602.359994,343.74 603.6,343.74 L603.6,345 C602.359994,344.879999 601.120006,344.82 599.88,344.82 C595.719979,344.82 592.240014,345.099997 589.44,345.66 L589.44,341.34 C587.639991,344.340015 584.460023,345.84 579.9,345.84 C576.699984,345.84 574.440007,345.040008 573.12,343.44 C572.52,342.719996 572.080001,341.750006 571.8,340.53 C571.52,339.309994 571.38,337.70001 571.38,335.7 L571.38,320.4 C571.38,318.559991 571.130002,317.220004 570.63,316.38 C570.129997,315.539996 569.260006,315.12 568.02,315.12 L568.02,313.86 C569.260006,313.980001 570.499994,314.04 571.74,314.04 C575.900021,314.04 579.379986,313.760003 582.18,313.2 L582.18,338.94 C582.18,340.220006 582.409998,341.169997 582.87,341.79 C583.330002,342.410003 584.079995,342.72 585.12,342.72 C586.280006,342.72 587.289996,342.310004 588.15,341.49 C589.010004,340.669996 589.44,339.640006 589.44,338.4 L589.44,320.4 C589.44,318.559991 589.190002,317.220004 588.69,316.38 C588.189997,315.539996 587.320006,315.12 586.08,315.12 L586.08,313.86 C587.320006,313.980001 588.559994,314.04 589.8,314.04 C593.960021,314.04 597.439986,313.760003 600.24,313.2 L600.24,338.46 Z M636.9,338.4 C636.9,340.240009 637.149997,341.58 637.65,342.42 C638.150002,343.260004 639.019994,343.68 640.26,343.68 L640.26,344.94 C639.019994,344.819999 637.780006,344.76 636.54,344.76 C632.379979,344.76 628.900014,345.039997 626.1,345.6 L626.1,341.34 C625.259996,342.900008 624.270006,344.039996 623.13,344.76 C621.989994,345.480004 620.54,345.84 618.78,345.84 C615.099982,345.84 612.140011,344.470014 609.9,341.73 C607.659989,338.989986 606.54,334.820028 606.54,329.22 C606.54,323.899973 607.729988,319.870014 610.11,317.13 C612.490012,314.389986 615.739979,313.02 619.86,313.02 C622.420013,313.02 624.499992,313.519995 626.1,314.52 L626.1,305.28 C626.1,303.439991 625.850002,302.100004 625.35,301.26 C624.849997,300.419996 623.980006,300 622.74,300 L622.74,298.74 C623.980006,298.860001 625.219994,298.92 626.46,298.92 C630.620021,298.92 634.099986,298.640003 636.9,298.08 L636.9,338.4 Z M621.78,342.72 C622.940006,342.72 623.949996,342.310004 624.81,341.49 C625.670004,340.669996 626.1,339.640006 626.1,338.4 L626.1,315.78 C625.219996,315.259997 624.280005,315 623.28,315 C621.399991,315 620.010004,316.189988 619.11,318.57 C618.209995,320.950012 617.76,324.559976 617.76,329.4 C617.76,334.320025 618.119996,337.76999 618.84,339.75 C619.560004,341.73001 620.539994,342.72 621.78,342.72 Z M661.2,339.3 C664.120015,339.3 666.53999,337.960013 668.46,335.28 L669.48,335.64 C668.599996,338.440014 667.110011,340.83999 665.01,342.84 C662.909989,344.84001 660.220016,345.84 656.94,345.84 C652.739979,345.84 649.380013,344.540013 646.86,341.94 C644.339987,339.339987 643.08,335.180029 643.08,329.46 C643.08,323.979973 644.489986,319.870014 647.31,317.13 C650.130014,314.389986 653.859977,313.02 658.5,313.02 C666.060038,313.02 669.84,317.499955 669.84,326.46 L654.36,326.46 C654.32,326.940002 654.3,327.659995 654.3,328.62 C654.3,332.460019 654.969993,335.199992 656.31,336.84 C657.650007,338.480008 659.27999,339.3 661.2,339.3 Z M658.08,314.4 C655.839989,314.4 654.520002,318.039964 654.12,325.32 L661.08,325.32 C661.12,322.119984 660.890003,319.50001 660.39,317.46 C659.889998,315.41999 659.12,314.4 658.08,314.4 Z" id="Magni&amp;Tude"></path>
        </g>
    </g>
</svg>